#!OML:ASF I:\Actors\actors\Patient Classification 1\Patient 1\Session 1\Subject1.ASF
:FULLY-SPECIFIED
:DEGREES
1136
root 0.29665 17.6131 8.45345 23.168 4.55048 -7.75618
lowerback 7.77602 0.756184 4.69355
upperback -5.92525 1.89366 2.77949
thorax -10.6976 0.691953 0.0376216
lowerneck -20.5404 -3.40462 1.0031
upperneck 10.5298 -5.22363 2.38988
head 6.57542 -2.25618 0.0220938
rclavicle 1.51325e-014 7.95139e-015
rhumerus 37.3604 23.3012 -74.0984
rradius 55.1693
rwrist -20.0583
rhand 16.1537 -43.1611
rfingers 7.12502
rthumb 40.9365 -428.098
lclavicle 1.51325e-014 7.95139e-015
lhumerus 49.433 -35.5017 64.8516
lradius 46.3817
lwrist 49.2394
lhand -31.7362 3.501
lfingers 7.12502
lthumb -4.99406 33.4221
rfemur -20.0282 40.729 9.31115
rtibia -1.32217
rfoot -23.7428 -46.7271
rtoes 19.3402
lfemur -13.4018 -46.3014 2.9658
ltibia -9.78978
lfoot -42.6168 48.189
ltoes 41.2334
1137
root 0.313124 17.6117 8.45351 23.0851 5.4006 -7.72807
lowerback 7.8268 0.496402 4.80882
upperback -5.91516 1.5694 2.86982
thorax -10.7288 0.530595 0.124377
lowerneck -20.3742 -3.30034 1.24584
upperneck 10.1429 -5.12192 2.32082
head 6.41427 -2.21293 -0.0200328
rclavicle -8.02593e-015 -2.28602e-014
rhumerus 37.8102 22.8686 -73.6402
rradius 54.8481
rwrist -19.6981
rhand 16.1351 -42.8539
rfingers 7.12502
rthumb 40.919 -427.796
lclavicle -8.02593e-015 -2.28602e-014
lhumerus 49.6922 -35.3535 65.6288
lradius 45.873
lwrist 49.3476
lhand -31.2243 3.1941
lfingers 7.12502
lthumb -4.49969 33.1263
rfemur -19.3959 40.3216 9.83081
rtibia -1.54854
rfoot -24.6927 -46.8453
rtoes 20.4906
lfemur -14.1169 -47.153 3.6243
ltibia -9.52717
lfoot -41.7996 48.8231
ltoes 40.1582
1138
root 0.328975 17.6105 8.45405 23.0283 6.13176 -7.70768
lowerback 7.83625 0.2931 4.8843
upperback -5.90546 1.31059 2.93065
thorax -10.7331 0.403027 0.191324
lowerneck -20.3318 -3.28799 1.33512
upperneck 9.89291 -5.1265 2.36741
head 6.32573 -2.21296 -0.0162195
rclavicle 1.01629e-014 -4.24405e-014
rhumerus 38.3849 22.3439 -73.2643
rradius 54.2716
rwrist -19.2746
rhand 14.9275 -41.5593
rfingers 7.12502
rthumb 39.7834 -426.85
lclavicle 1.01629e-014 -4.24405e-014
lhumerus 49.9216 -35.2364 66.4674
lradius 45.4838
lwrist 49.0388
lhand -30.9507 2.91431
lfingers 7.12502
lthumb -4.23549 32.8519
rfemur -18.8345 40.023 10.2777
rtibia -1.77834
rfoot -25.8489 -46.8366
rtoes 22.0642
lfemur -14.7416 -47.8828 4.2295
ltibia -9.35045
lfoot -41.0173 49.366
ltoes 39.2031
1139
root 0.345511 17.6095 8.45553 22.9824 6.70966 -7.67685
lowerback 7.82671 0.151322 4.9213
upperback -5.86993 1.12418 2.96221
thorax -10.694 0.312889 0.23565
lowerneck -20.3597 -3.33665 1.27342
upperneck 9.61629 -5.18762 2.51703
head 6.24708 -2.23715 0.0373572
rclavicle 8.92046e-015 1.61016e-014
rhumerus 39.0699 21.7529 -72.98
rradius 53.5194
rwrist -18.8478
rhand 14.1296 -40.3809
rfingers 7.12502
rthumb 39.0318 -425.892
lclavicle 8.92046e-015 1.61016e-014
lhumerus 50.1061 -35.0743 67.4369
lradius 45.1493
lwrist 48.3975
lhand -30.8416 2.19566
lfingers 7.12502
lthumb -4.13022 32.1354
rfemur -18.3752 39.8455 10.5959
rtibia -1.96443
rfoot -27.1125 -46.7565
rtoes 23.9066
lfemur -15.2293 -48.4893 4.69408
ltibia -9.23572
lfoot -40.2849 49.833
ltoes 38.3882
1140
root 0.362892 17.6094 8.45715 22.9556 7.13227 -7.62357
lowerback 7.86023 0.0598552 4.9508
upperback -5.84455 1.00241 2.93014
thorax -10.6886 0.250856 0.204736
lowerneck -20.4882 -3.37788 1.2415
upperneck 9.45093 -5.25045 2.6526
head 6.21951 -2.25884 0.0787069
rclavicle -3.6154e-015 -8.44835e-016
rhumerus 39.7387 21.1767 -72.8047
rradius 52.8211
rwrist -18.4136
rhand 14.2346 -39.9634
rfingers 7.12502
rthumb 39.1307 -425.446
lclavicle -3.6154e-015 -8.44835e-016
lhumerus 50.1419 -34.7981 68.6016
lradius 44.8274
lwrist 47.8154
lhand -30.7608 1.12098
lfingers 7.12502
lthumb -4.05211 31.0622
rfemur -18.0365 39.781 10.7599
rtibia -2.1229
rfoot -28.181 -46.7711
rtoes 25.4353
lfemur -15.6582 -48.9701 5.03293
ltibia -9.11429
lfoot -39.6132 50.2894
ltoes 37.5615
1141
root 0.381755 17.6106 8.45705 22.9699 7.38287 -7.57184
lowerback 7.9378 0.0251527 4.96418
upperback -5.87597 0.957701 2.85451
thorax -10.7704 0.223175 0.123927
lowerneck -20.5913 -3.39833 1.28262
upperneck 9.41638 -5.29824 2.71076
head 6.22588 -2.27474 0.0843604
rclavicle 7.01958e-016 2.92213e-014
rhumerus 40.3321 20.7026 -72.7431
rradius 52.0665
rwrist -17.5833
rhand 14.56 -39.6082
rfingers 7.12502
rthumb 39.4373 -425.002
lclavicle 7.01958e-016 2.92213e-014
lhumerus 49.9585 -34.4122 70.0562
lradius 44.3332
lwrist 47.2202
lhand -30.7486 0.282333
lfingers 7.12502
lthumb -4.04037 30.2238
rfemur -17.874 39.8464 10.7554
rtibia -2.22141
rfoot -29.1343 -46.8082
rtoes 26.7641
lfemur -16.0156 -49.2902 5.26403
ltibia -9.00596
lfoot -39.2101 50.6263
ltoes 36.9776
1142
root 0.401639 17.6111 8.45635 22.9839 7.45876 -7.54575
lowerback 8.03998 0.0665495 4.95199
upperback -5.94145 1.01392 2.75462
thorax -10.9016 0.24369 0.0143924
lowerneck -20.4341 -3.4194 1.35804
upperneck 9.18419 -5.33673 2.72883
head 6.12478 -2.29585 0.0790623
rclavicle -3.82039e-015 1.50082e-014
rhumerus 40.9032 20.3564 -72.6852
rradius 51.1626
rwrist -16.0398
rhand 15.4993 -39.0788
rfingers 7.12502
rthumb 40.3214 -424.207
lclavicle -3.82039e-015 1.50082e-014
lhumerus 49.7793 -34.0886 71.3989
lradius 43.7561
lwrist 46.726
lhand -31.1376 -0.454244
lfingers 7.12502
lthumb -4.416 29.4797
rfemur -17.8467 40.0649 10.641
rtibia -2.22938
rfoot -29.7644 -46.9632
rtoes 27.3854
lfemur -16.1296 -49.4718 5.30286
ltibia -8.99222
lfoot -39.2379 50.7358
ltoes 37.0302
1143
root 0.42226 17.611 8.45584 22.9765 7.4148 -7.51799
lowerback 8.08253 0.145017 5.00414
upperback -5.94853 1.11253 2.57559
thorax -10.9266 0.278281 -0.225089
lowerneck -20.2477 -3.43543 1.358
upperneck 8.86324 -5.36403 2.89009
head 5.99726 -2.30451 0.134057
rclavicle -3.27373e-015 -5.64797e-014
rhumerus 41.6146 20.0424 -72.6483
rradius 50.2064
rwrist -14.2765
rhand 17.0111 -38.5617
rfingers 7.12502
rthumb 41.7412 -423.238
lclavicle -3.27373e-015 -5.64797e-014
lhumerus 49.8433 -33.8341 72.1443
lradius 43.4493
lwrist 46.5206
lhand -31.9339 -0.758845
lfingers 7.12502
lthumb -5.18495 29.1577
rfemur -17.8871 40.3778 10.4343
rtibia -2.22248
rfoot -29.9276 -47.3456
rtoes 27.1016
lfemur -16.0658 -49.5837 5.16258
ltibia -9.0121
lfoot -39.4925 50.727
ltoes 37.3655
1144
root 0.443541 17.6117 8.45444 22.9548 7.32831 -7.46012
lowerback 8.01818 0.260851 4.74746
upperback -5.88184 1.2281 2.5815
thorax -10.8101 0.356532 -0.0960226
lowerneck -20.3703 -3.51642 1.03031
upperneck 8.80528 -5.41426 3.09473
head 6.0134 -2.32291 0.244125
rclavicle -1.70924e-014 -1.88348e-014
rhumerus 42.4454 19.9202 -72.3482
rradius 49.3578
rwrist -13.3106
rhand 18.337 -38.2667
rfingers 7.12502
rthumb 42.9828 -422.519
lclavicle -1.70924e-014 -1.88348e-014
lhumerus 49.9002 -33.3903 73.0479
lradius 43.2247
lwrist 46.2625
lhand -32.7321 -0.584672
lfingers 7.12502
lthumb -5.95558 29.3116
rfemur -17.9596 40.7076 10.1569
rtibia -2.18601
rfoot -30.1224 -47.7119
rtoes 26.7723
lfemur -15.9802 -49.6847 4.94171
ltibia -8.99392
lfoot -39.7534 50.6925
ltoes 37.5883
1145
root 0.462802 17.6126 8.45381 22.8965 7.21519 -7.43788
lowerback 8.12569 0.37533 4.73181
upperback -5.91386 1.37332 2.41022
thorax -10.9007 0.417713 -0.297371
lowerneck -20.4277 -3.55895 1.16903
upperneck 8.89536 -5.51031 3.07521
head 6.04822 -2.36325 0.203712
rclavicle -1.14425e-014 5.39203e-015
rhumerus 43.1119 19.8358 -72.3468
rradius 48.5072
rwrist -12.9049
rhand 19.1793 -38.0805
rfingers 7.12502
rthumb 43.7698 -422.049
lclavicle -1.14425e-014 5.39203e-015
lhumerus 49.7621 -33.1222 73.7236
lradius 43.0414
lwrist 46.026
lhand -33.3544 -0.704779
lfingers 7.12502
lthumb -6.55632 29.1737
rfemur -18.0469 41.0861 9.92614
rtibia -2.07342
rfoot -30.1559 -48.1522
rtoes 26.1315
lfemur -15.8537 -49.7541 4.72704
ltibia -8.96253
lfoot -39.8683 50.7137
ltoes 37.6495
1146
root 0.479377 17.6135 8.45631 22.8262 7.09492 -7.45592
lowerback 8.14366 0.533457 4.69235
upperback -5.9174 1.56878 2.26235
thorax -10.9032 0.507923 -0.468792
lowerneck -20.4341 -3.66269 1.18276
upperneck 8.92802 -5.66474 3.14799
head 6.06332 -2.43033 0.207387
rclavicle -5.85172e-015 2.14687e-014
rhumerus 44.1097 19.9246 -71.8247
rradius 47.5331
rwrist -12.7993
rhand 19.5133 -37.7136
rfingers 7.12502
rthumb 44.0814 -421.566
lclavicle -5.85172e-015 2.14687e-014
lhumerus 49.5693 -32.9077 74.28
lradius 43.122
lwrist 45.8191
lhand -33.9899 -0.877585
lfingers 7.12502
lthumb -7.16982 28.981
rfemur -18.1039 41.499 9.76163
rtibia -1.98508
rfoot -30.1373 -48.632
rtoes 25.5622
lfemur -15.7743 -49.7911 4.5833
ltibia -8.88031
lfoot -39.5335 50.9901
ltoes 37.2052
1147
root 0.493585 17.6156 8.46311 22.7484 7.04558 -7.46597
lowerback 8.15321 0.685585 4.63136
upperback -5.94483 1.75527 2.12666
thorax -10.9281 0.595377 -0.613262
lowerneck -20.3577 -3.77526 1.01697
upperneck 8.89085 -5.80661 3.41882
head 6.05483 -2.48347 0.305879
rclavicle 1.13307e-014 -4.13969e-014
rhumerus 44.0365 19.5483 -72.5869
rradius 47.1653
rwrist -11.5956
rhand 19.9199 -37.217
rfingers 7.12502
rthumb 44.4604 -420.926
lclavicle 1.13307e-014 -4.13969e-014
lhumerus 49.2164 -32.789 74.6899
lradius 43.4768
lwrist 45.6172
lhand -34.6142 -0.474422
lfingers 7.12502
lthumb -7.77245 29.3627
rfemur -18.0065 41.8709 9.70594
rtibia -1.99763
rfoot -30.4596 -48.9713
rtoes 25.5582
lfemur -15.7248 -49.8934 4.47882
ltibia -8.78018
lfoot -39.0061 51.3689
ltoes 36.5324
1148
root 0.506037 17.6174 8.4732 22.6364 7.10507 -7.51019
lowerback 8.1369 0.811424 4.67941
upperback -5.95615 1.91687 1.98151
thorax -10.9169 0.663021 -0.82412
lowerneck -20.2906 -3.87379 0.762491
upperneck 8.8292 -5.92413 3.82224
head 6.04769 -2.51717 0.46325
rclavicle 1.72197e-014 9.34288e-015
rhumerus 44.8249 19.6754 -72.2136
rradius 46.3039
rwrist -11.6281
rhand 19.893 -36.8505
rfingers 7.12502
rthumb 44.4354 -420.569
lclavicle 1.72197e-014 9.34288e-015
lhumerus 48.8529 -32.7179 74.9594
lradius 43.8605
lwrist 45.4605
lhand -35.016 0.0882561
lfingers 7.12502
lthumb -8.16021 29.9107
rfemur -17.7797 42.182 9.815
rtibia -2.0379
rfoot -30.8458 -49.2608
rtoes 25.5916
lfemur -15.6371 -50.0921 4.43439
ltibia -8.71642
lfoot -38.5407 51.7199
ltoes 35.9756
